<svg xmlns="http://www.w3.org/2000/svg" viewBox="0 0 512 512">
  <defs>
    <linearGradient id="bg" x1="0%" y1="0%" x2="100%" y2="100%">
      <stop offset="0%" style="stop-color:#6366f1"/>
      <stop offset="100%" style="stop-color:#4f46e5"/>
    </linearGradient>
    <linearGradient id="paper" x1="0%" y1="0%" x2="0%" y2="100%">
      <stop offset="0%" style="stop-color:#ffffff"/>
      <stop offset="100%" style="stop-color:#e8e8f0"/>
    </linearGradient>
  </defs>
  <!-- خلفية مدورة -->
  <rect width="512" height="512" rx="96" fill="url(#bg)"/>
  <!-- ورقة الفاتورة -->
  <rect x="136" y="72" width="240" height="320" rx="16" fill="url(#paper)" opacity="0.95"/>
  <!-- طية الورقة -->
  <path d="M336 72 L376 72 L376 112 Z" fill="#c7c7d0" opacity="0.5"/>
  <!-- خطوط الفاتورة -->
  <rect x="168" y="112" width="176" height="8" rx="4" fill="#6366f1" opacity="0.3"/>
  <rect x="168" y="140" width="140" height="6" rx="3" fill="#94a3b8" opacity="0.4"/>
  <rect x="168" y="164" width="160" height="6" rx="3" fill="#94a3b8" opacity="0.4"/>
  <rect x="168" y="188" width="120" height="6" rx="3" fill="#94a3b8" opacity="0.4"/>
  <!-- فاصل -->
  <line x1="168" y1="214" x2="344" y2="214" stroke="#6366f1" stroke-width="2" stroke-dasharray="6,4" opacity="0.4"/>
  <!-- سطور الاسعار -->
  <rect x="168" y="232" width="100" height="6" rx="3" fill="#94a3b8" opacity="0.4"/>
  <rect x="300" y="232" width="44" height="6" rx="3" fill="#6366f1" opacity="0.5"/>
  <rect x="168" y="256" width="80" height="6" rx="3" fill="#94a3b8" opacity="0.4"/>
  <rect x="300" y="256" width="44" height="6" rx="3" fill="#6366f1" opacity="0.5"/>
  <!-- المجموع -->
  <rect x="168" y="292" width="176" height="2" rx="1" fill="#6366f1" opacity="0.3"/>
  <rect x="168" y="308" width="60" height="10" rx="4" fill="#6366f1" opacity="0.6"/>
  <rect x="280" y="306" width="64" height="12" rx="4" fill="#6366f1" opacity="0.8"/>
  <!-- خطوط الباركود -->
  <rect x="180" y="348" width="3" height="28" fill="#334155" opacity="0.7"/>
  <rect x="186" y="348" width="2" height="28" fill="#334155" opacity="0.7"/>
  <rect x="192" y="348" width="4" height="28" fill="#334155" opacity="0.7"/>
  <rect x="200" y="348" width="2" height="28" fill="#334155" opacity="0.7"/>
  <rect x="205" y="348" width="3" height="28" fill="#334155" opacity="0.7"/>
  <rect x="212" y="348" width="5" height="28" fill="#334155" opacity="0.7"/>
  <rect x="220" y="348" width="2" height="28" fill="#334155" opacity="0.7"/>
  <rect x="226" y="348" width="3" height="28" fill="#334155" opacity="0.7"/>
  <rect x="233" y="348" width="4" height="28" fill="#334155" opacity="0.7"/>
  <rect x="240" y="348" width="2" height="28" fill="#334155" opacity="0.7"/>
  <rect x="246" y="348" width="3" height="28" fill="#334155" opacity="0.7"/>
  <rect x="252" y="348" width="5" height="28" fill="#334155" opacity="0.7"/>
  <rect x="260" y="348" width="2" height="28" fill="#334155" opacity="0.7"/>
  <rect x="266" y="348" width="4" height="28" fill="#334155" opacity="0.7"/>
  <rect x="274" y="348" width="3" height="28" fill="#334155" opacity="0.7"/>
  <rect x="280" y="348" width="2" height="28" fill="#334155" opacity="0.7"/>
  <rect x="286" y="348" width="4" height="28" fill="#334155" opacity="0.7"/>
  <rect x="294" y="348" width="2" height="28" fill="#334155" opacity="0.7"/>
  <rect x="300" y="348" width="3" height="28" fill="#334155" opacity="0.7"/>
  <rect x="307" y="348" width="5" height="28" fill="#334155" opacity="0.7"/>
  <rect x="316" y="348" width="2" height="28" fill="#334155" opacity="0.7"/>
  <rect x="322" y="348" width="3" height="28" fill="#334155" opacity="0.7"/>
  <!-- دائرة الحاسبة -->
  <circle cx="380" cy="400" r="72" fill="#0f172a" opacity="0.9"/>
  <circle cx="380" cy="400" r="66" fill="#1e293b"/>
  <!-- شاشة الحاسبة -->
  <rect x="332" y="356" width="96" height="28" rx="6" fill="#0f172a"/>
  <text x="420" y="377" text-anchor="end" font-size="20" font-weight="700" fill="#10b981" font-family="monospace">45,000</text>
  <!-- ازرار الحاسبة -->
  <rect x="334" y="392" width="20" height="16" rx="4" fill="#334155"/><text x="344" y="404" text-anchor="middle" font-size="10" fill="#e2e8f0">7</text>
  <rect x="360" y="392" width="20" height="16" rx="4" fill="#334155"/><text x="370" y="404" text-anchor="middle" font-size="10" fill="#e2e8f0">8</text>
  <rect x="386" y="392" width="20" height="16" rx="4" fill="#334155"/><text x="396" y="404" text-anchor="middle" font-size="10" fill="#e2e8f0">9</text>
  <rect x="412" y="392" width="20" height="16" rx="4" fill="#f59e0b"/><text x="422" y="404" text-anchor="middle" font-size="11" font-weight="700" fill="#fff">+</text>
  <rect x="334" y="414" width="20" height="16" rx="4" fill="#334155"/><text x="344" y="426" text-anchor="middle" font-size="10" fill="#e2e8f0">4</text>
  <rect x="360" y="414" width="20" height="16" rx="4" fill="#334155"/><text x="370" y="426" text-anchor="middle" font-size="10" fill="#e2e8f0">5</text>
  <rect x="386" y="414" width="20" height="16" rx="4" fill="#334155"/><text x="396" y="426" text-anchor="middle" font-size="10" fill="#e2e8f0">6</text>
  <rect x="412" y="414" width="20" height="16" rx="4" fill="#6366f1"/><text x="422" y="426" text-anchor="middle" font-size="10" font-weight="700" fill="#fff">=</text>
  <rect x="334" y="436" width="20" height="16" rx="4" fill="#334155"/><text x="344" y="448" text-anchor="middle" font-size="10" fill="#e2e8f0">1</text>
  <rect x="360" y="436" width="20" height="16" rx="4" fill="#334155"/><text x="370" y="448" text-anchor="middle" font-size="10" fill="#e2e8f0">2</text>
  <rect x="386" y="436" width="20" height="16" rx="4" fill="#334155"/><text x="396" y="448" text-anchor="middle" font-size="10" fill="#e2e8f0">3</text>
  <rect x="412" y="436" width="20" height="16" rx="4" fill="#10b981"/><text x="422" y="448" text-anchor="middle" font-size="8" font-weight="700" fill="#fff">OK</text>
</svg>
